HIERARCHY
ROOT Hips
{
	OFFSET 0.000000 0.000000 0.000000
	CHANNELS 6 Xposition Yposition Zposition Zrotation Yrotation Xrotation 
	JOINT LowerBack
	{
		OFFSET 0.000000 0.000000 0.000000
		CHANNELS 3 Zrotation Yrotation Xrotation
		JOINT Spine
		{
			OFFSET 0.028270 2.035590 -0.193380
			CHANNELS 3 Zrotation Yrotation Xrotation
			JOINT Spine1
			{
				OFFSET 0.056720 2.048850 -0.042750
				CHANNELS 3 Zrotation Yrotation Xrotation
				JOINT Neck
				{
					OFFSET 0.000000 0.000000 0.000000
					CHANNELS 3 Zrotation Yrotation Xrotation
					JOINT Neck1
					{
						OFFSET -0.054170 1.746240 0.172020
						CHANNELS 3 Zrotation Yrotation Xrotation
						JOINT Head
						{
							OFFSET 0.104070 1.761360 -0.123970
							CHANNELS 3 Zrotation Yrotation Xrotation
							End Site
							{
								OFFSET 0.000000 0.000000 0.000000
							}
						}
					}
				}
				JOINT LeftShoulder
				{
					OFFSET 0.000000 0.000000 0.000000
					CHANNELS 3 Zrotation Yrotation Xrotation
					JOINT LeftArm
					{
						OFFSET 3.362410 1.200890 -0.311210
						CHANNELS 3 Zrotation Yrotation Xrotation
						JOINT LeftForeArm
						{
							OFFSET 4.983000 -0.000000 -0.000000
							CHANNELS 3 Zrotation Yrotation Xrotation
							JOINT LeftHand
							{
								OFFSET 3.483560 -0.000000 -0.000000
								CHANNELS 3 Zrotation Yrotation Xrotation
								JOINT LeftFingerBase
								{
									OFFSET 0.000000 0.000000 0.000000
									CHANNELS 3 Zrotation Yrotation Xrotation
									JOINT LeftHandIndex1
									{
										OFFSET 0.715260 -0.000000 -0.000000
										CHANNELS 3 Zrotation Yrotation Xrotation
										End Site
										{
											OFFSET 0.000000 0.000000 0.000000
										}
									}
								}
								JOINT LThumb
								{
									OFFSET 0.000000 0.000000 0.000000
									CHANNELS 3 Zrotation Yrotation Xrotation
									End Site
									{
										OFFSET 0.000000 0.000000 0.000000
									}
								}
							}
						}
					}
				}
				JOINT RightShoulder
				{
					OFFSET 0.000000 0.000000 0.000000
					CHANNELS 3 Zrotation Yrotation Xrotation
					JOINT RightArm
					{
						OFFSET -3.136600 1.374050 -0.404650
						CHANNELS 3 Zrotation Yrotation Xrotation
						JOINT RightForeArm
						{
							OFFSET -5.241900 -0.000000 -0.000000
							CHANNELS 3 Zrotation Yrotation Xrotation
							JOINT RightHand
							{
								OFFSET -3.444170 -0.000000 -0.000000
								CHANNELS 3 Zrotation Yrotation Xrotation
								JOINT RightFingerBase
								{
									OFFSET 0.000000 0.000000 0.000000
									CHANNELS 3 Zrotation Yrotation Xrotation
									JOINT RightHandIndex1
									{
										OFFSET -0.622530 -0.000000 -0.000000
										CHANNELS 3 Zrotation Yrotation Xrotation
										End Site
										{
											OFFSET 0.000000 0.000000 0.000000
										}
									}
								}
								JOINT RThumb
								{
									OFFSET 0.000000 0.000000 0.000000
									CHANNELS 3 Zrotation Yrotation Xrotation
									End Site
									{
										OFFSET 0.000000 0.000000 0.000000
									}
								}
							}
						}
					}
				}
			}
		}
	}
}
}
MOTION
Frames: 7
Frame Time: 0.008333
4.646637 17.356936 1.400743 178.636990 -59.843340 -159.034336 2.699881 -4.747318 1.790799 0.756474 -4.784495 -2.293724 -2.704047 -4.894511 0.616069 15.225733 -13.512463 -5.340182 -0.489117 -0.071639 0.599904 0.000000 0.000000 0.000000 26.017777 -6.023261 2.565624 13.438169 -26.091559 -71.874763 1.943373 -11.166726 -0.235782 23.823834 -3.260638 -0.862952 -0.808636 0.692663 -0.000000 0.000000 0.000000 0.000000 0.000000 0.000000 0.000000 7.709937 -12.099378 -0.913360 59.270606 18.909264 40.989530 179.478829 74.124334 179.953236 -10.119078 4.735490 -0.469140 0.298115 -0.431074 0.000000 0.000000 0.000000 0.000000 0.000000 0.000000 0.000000 
4.648709 17.355160 1.403740 178.521163 -59.844698 -158.808099 2.808029 -4.745759 1.802970 0.747950 -4.792413 -2.281235 -2.835502 -4.898851 0.637298 15.413389 -13.739329 -5.348358 -0.575904 -0.077420 0.596886 0.000000 0.000000 0.000000 25.992839 -5.875470 2.442052 12.678788 -26.355367 -70.763004 1.924443 -13.252218 -0.228750 22.295000 -1.786755 -0.498879 -0.744262 0.657602 -0.000000 0.000000 0.000000 0.000000 0.000000 0.000000 0.000000 8.153161 -12.287439 -0.933929 59.592035 18.336602 40.368669 179.463835 74.245281 179.952928 -10.082276 4.724195 -0.466612 0.297207 -0.433949 0.000000 0.000000 0.000000 0.000000 0.000000 0.000000 0.000000 
4.651615 17.353473 1.406344 178.400961 -59.857990 -158.594180 2.934562 -4.735349 1.821663 0.737597 -4.793051 -2.269820 -2.985351 -4.895019 0.643969 15.570429 -13.962408 -5.332838 -0.668947 -0.084050 0.600134 0.000000 0.000000 0.000000 25.912840 -5.778608 2.302703 11.880611 -26.612401 -69.367830 1.888685 -15.487260 -0.218314 20.599678 -0.757852 -0.263281 -0.669305 0.638191 -0.000000 0.000000 0.000000 0.000000 0.000000 0.000000 0.000000 8.569899 -12.471135 -0.951322 59.995908 17.719343 39.724070 179.449756 74.379906 179.952535 -10.052757 4.713896 -0.464481 0.296213 -0.437030 0.000000 0.000000 0.000000 0.000000 0.000000 0.000000 0.000000 
4.655507 17.351862 1.408628 178.274936 -59.881261 -158.393600 3.079768 -4.717087 1.849348 0.725146 -4.787354 -2.259207 -3.155243 -4.883924 0.635032 15.696564 -14.177827 -5.292246 -0.767741 -0.091503 0.609974 0.000000 0.000000 0.000000 25.773556 -5.720200 2.142036 11.050537 -26.865953 -67.772855 1.848009 -17.868795 -0.206550 18.934276 -0.201723 -0.145268 -0.591150 0.634946 -0.000000 0.000000 0.000000 0.000000 0.000000 0.000000 0.000000 8.958276 -12.650495 -0.964898 60.482577 17.064386 39.058621 179.437093 74.527350 179.952022 -10.036226 4.706638 -0.463349 0.295222 -0.440375 0.000000 0.000000 0.000000 0.000000 0.000000 0.000000 0.000000 
4.660298 17.350325 1.410690 178.145782 -59.914423 -158.207098 3.245361 -4.692605 1.884994 0.711017 -4.777103 -2.249986 -3.345352 -4.867434 0.609582 15.791048 -14.379729 -5.225336 -0.871225 -0.099715 0.626759 0.000000 0.000000 0.000000 25.573881 -5.692931 1.957542 10.176346 -27.111550 -66.028701 1.807095 -20.409742 -0.194745 17.390258 -0.107939 -0.120144 -0.513914 0.646516 0.000000 0.000000 0.000000 0.000000 0.000000 0.000000 0.000000 9.313259 -12.822533 -0.974871 61.052659 16.374943 38.375274 179.426684 74.686646 179.951350 -10.037180 4.704094 -0.463416 0.294239 -0.444011 0.000000 0.000000 0.000000 0.000000 0.000000 0.000000 0.000000 
4.665952 17.348848 1.412613 178.014831 -59.954136 -158.034615 3.427939 -4.663327 1.931058 0.694646 -4.763357 -2.241990 -3.555896 -4.846678 0.566768 15.856841 -14.565266 -5.132350 -0.978657 -0.108614 0.650412 0.000000 0.000000 0.000000 25.315351 -5.690010 1.745732 9.249415 -27.340565 -64.171909 1.771181 -23.117852 -0.185462 16.163818 -0.358828 -0.151017 -0.445360 0.667928 -0.000000 0.000000 0.000000 0.000000 0.000000 0.000000 0.000000 9.637237 -12.987111 -0.980081 61.700250 15.660811 37.678732 179.418791 74.857304 179.950518 -10.058467 4.708542 -0.465082 0.293312 -0.447964 0.000000 0.000000 0.000000 0.000000 0.000000 0.000000 0.000000 
4.672378 17.347441 1.414425 177.883842 -59.999832 -157.875005 3.625467 -4.630967 1.986378 0.676247 -4.747670 -2.235813 -3.785055 -4.823415 0.506306 15.896086 -14.730946 -5.014115 -1.088707 -0.118083 0.680760 0.000000 0.000000 0.000000 25.002439 -5.711418 1.507899 8.251921 -27.536571 -62.226363 1.738721 -26.006464 -0.179818 15.316484 -0.835201 -0.211993 -0.388224 0.694225 -0.000000 0.000000 0.000000 0.000000 0.000000 0.000000 0.000000 9.928606 -13.142356 -0.980517 62.419766 14.927371 36.973310 179.413870 75.035681 179.949505 -10.100637 4.722157 -0.468549 0.292388 -0.452260 0.000000 0.000000 0.000000 0.000000 0.000000 0.000000 0.000000 
